<svg xmlns="http://www.w3.org/2000/svg" viewBox="0 0 260 260">
  <rect width="260" height="260" rx="56" fill="#14164F"/>
  <g fill="none" stroke="#1BA0D7" stroke-width="9" stroke-linecap="round" stroke-linejoin="round">
    <path d="M70 150 C50 122 55 82 90 70 C100 46 145 42 160 64 C188 52 214 74 208 100 C230 112 226 150 200 158 C204 184 170 204 150 188 C132 210 92 204 90 178 C62 178 54 162 70 150 Z"/>
    <path d="M104 100 C90 100 90 120 106 120 C122 120 122 100 104 100"/>
    <path d="M144 94 C130 94 128 116 146 116 C164 116 160 94 144 94"/>
    <path d="M118 142 C104 142 104 166 122 166 C142 166 138 142 118 142"/>
    <path d="M102 188 C98 210 110 226 124 230"/>
  </g>
</svg>
